<?xml version="1.0" encoding="utf-8"?>
<!-- Generator: Adobe Illustrator 16.0.0, SVG Export Plug-In . SVG Version: 6.00 Build 0)  -->
<!DOCTYPE svg PUBLIC "-//W3C//DTD SVG 1.1//EN" "http://www.w3.org/Graphics/SVG/1.1/DTD/svg11.dtd">
<svg version="1.1" id="圖層_1" focusable="false" xmlns="http://www.w3.org/2000/svg" xmlns:xlink="http://www.w3.org/1999/xlink"
	 x="0px" y="0px" width="595.279px" height="596px" viewBox="0 122.445 595.279 596" enable-background="new 0 122.445 595.279 596"
	 xml:space="preserve">
<path d="M297.64,188.414c128.511,0,232.531,104.001,232.531,232.532c0,128.511-104.001,232.53-232.531,232.53
	c-128.512,0-232.531-104-232.531-232.53C65.109,292.435,169.11,188.414,297.64,188.414 M297.64,132.606
	c-159.245,0-288.339,129.093-288.339,288.339c0,159.246,129.094,288.34,288.339,288.34c159.246,0,288.339-129.094,288.339-288.34
	C585.979,261.699,456.886,132.606,297.64,132.606z M297.64,237.266c-101.443,0-183.681,82.235-183.681,183.68
	c0,101.44,82.236,183.681,183.681,183.681s183.678-82.238,183.678-183.681C481.319,319.501,399.085,237.266,297.64,237.266z"/>
</svg>
