<?xml version="1.0" encoding="utf-8"?>
<!-- Generator: Adobe Illustrator 16.0.0, SVG Export Plug-In . SVG Version: 6.00 Build 0)  -->
<!DOCTYPE svg PUBLIC "-//W3C//DTD SVG 1.1//EN" "http://www.w3.org/Graphics/SVG/1.1/DTD/svg11.dtd">
<svg version="1.1" id="圖層_1" xmlns="http://www.w3.org/2000/svg" xmlns:xlink="http://www.w3.org/1999/xlink" x="0px" y="0px"
	 width="39.688px" height="39.588px" viewBox="0 0 39.688 39.588" enable-background="new 0 0 39.688 39.588" xml:space="preserve">
<g id="loupe.svg">
	<g>
		<g>
			<path fill="#040000" d="M37.268,29.14l-5.551-4.163c1.388-2.379,1.982-5.154,1.982-8.127C33.699,7.533,26.166,0,16.85,0
				S0,7.533,0,16.849c0,9.317,7.533,16.85,16.85,16.85c2.974,0,5.551-0.793,8.127-1.982l4.164,5.55
				c2.18,2.775,6.343,3.172,8.92,0.595C40.439,35.483,40.241,31.32,37.268,29.14z M16.85,29.734
				c-7.137,0-12.885-5.749-12.885-12.885c0-7.136,5.748-12.885,12.885-12.885s12.885,5.749,12.885,12.885
				S23.986,29.734,16.85,29.734z"/>
		</g>
	</g>
</g>
</svg>
