<?xml version="1.0" encoding="utf-8"?>
<!-- Generator: Adobe Illustrator 16.0.0, SVG Export Plug-In . SVG Version: 6.00 Build 0)  -->
<!DOCTYPE svg PUBLIC "-//W3C//DTD SVG 1.1//EN" "http://www.w3.org/Graphics/SVG/1.1/DTD/svg11.dtd">
<svg version="1.1" id="圖層_1" xmlns="http://www.w3.org/2000/svg" xmlns:xlink="http://www.w3.org/1999/xlink" x="0px" y="0px"
	 width="53.589px" height="49.895px" viewBox="0 0 53.589 49.895" enable-background="new 0 0 53.589 49.895" xml:space="preserve">
<g id="mechanical-gears-.svg">
	<g>
		<g>
			<path fill="#040000" d="M24.291,28.081c1.078-0.672,2.053-1.492,2.897-2.434l3.047,1.76l2.773-4.805l-3.04-1.756
				c0.387-1.18,0.613-2.432,0.656-3.729l3.459-0.611l-0.964-5.463l-3.458,0.609c-0.479-1.184-1.119-2.285-1.896-3.275l2.261-2.693
				l-4.251-3.566l-2.258,2.691c-1.104-0.59-2.298-1.033-3.557-1.297V0h-5.548v3.51c-1.26,0.266-2.454,0.709-3.558,1.299L8.598,2.117
				l-4.25,3.566l2.26,2.693c-0.777,0.99-1.418,2.092-1.896,3.275l-3.458-0.609L0.29,16.506l3.458,0.611
				c0.042,1.297,0.27,2.549,0.656,3.729l-3.041,1.756l2.774,4.805l3.047-1.758c0.845,0.94,1.819,1.76,2.896,2.434l-1.202,3.303
				l5.213,1.896l1.201-3.299c0.619,0.088,1.251,0.135,1.894,0.135s1.274-0.047,1.894-0.135l1.201,3.299l5.213-1.896L24.291,28.081
				L24.291,28.081z M17.186,23.754c-3.906,0-7.084-3.178-7.084-7.084s3.178-7.086,7.084-7.086c3.907,0,7.086,3.18,7.086,7.086
				S21.093,23.754,17.186,23.754z"/>
			<path fill="#040000" d="M48.138,32.247l-2.392,0.773c-0.456-0.793-1.02-1.51-1.669-2.135l1.337-2.133l-3.365-2.107l-1.336,2.131
				c-0.84-0.311-1.73-0.506-2.649-0.568l-0.347-2.491l-3.934,0.549l0.347,2.488c-0.866,0.313-1.67,0.744-2.394,1.273l-1.867-1.686
				l-2.66,2.947l1.867,1.688c-0.453,0.777-0.798,1.623-1.02,2.51l-2.513-0.09L25.4,39.364l2.512,0.092
				c0.158,0.916,0.444,1.779,0.835,2.58l-1.982,1.545l2.441,3.131l1.986-1.547c0.691,0.582,1.464,1.068,2.294,1.439l-0.526,2.461
				l3.884,0.83l0.525-2.459c0.447,0.002,0.9-0.029,1.355-0.092c0.456-0.063,0.899-0.158,1.33-0.281l1.178,2.221l3.508-1.861
				L43.562,45.2c0.697-0.584,1.307-1.262,1.813-2.012l2.333,0.945l1.492-3.68l-2.329-0.945c0.157-0.875,0.195-1.785,0.098-2.709
				l2.392-0.773L48.138,32.247L48.138,32.247z M38.097,42.834c-2.771,0.385-5.338-1.555-5.724-4.324s1.554-5.338,4.324-5.723
				c2.77-0.387,5.336,1.553,5.723,4.322C42.806,39.879,40.866,42.448,38.097,42.834z"/>
			<path fill="#040000" d="M53.495,18.484l0.094-3.135l-1.983-0.059c-0.125-0.691-0.347-1.375-0.673-2.031l1.558-1.23l-1.943-2.461
				l-1.557,1.23c-0.556-0.461-1.17-0.838-1.822-1.121l0.402-1.945l-3.069-0.637l-0.403,1.945c-0.707,0-1.42,0.102-2.117,0.307
				l-0.94-1.746l-2.761,1.486l0.94,1.746c-0.555,0.469-1.031,1.01-1.422,1.6l-1.845-0.734l-1.159,2.912l1.846,0.736
				c-0.121,0.701-0.145,1.42-0.065,2.137l-1.884,0.623l0.984,2.977l1.884-0.623c0.369,0.635,0.817,1.197,1.326,1.68l-1.042,1.689
				l2.667,1.646l1.045-1.691c0.673,0.242,1.378,0.389,2.094,0.436l0.286,1.967l3.103-0.456l-0.285-1.963
				c0.331-0.121,0.657-0.268,0.978-0.441c0.32-0.172,0.622-0.363,0.906-0.572l1.482,1.318l2.085-2.34l-1.483-1.322
				c0.355-0.623,0.62-1.293,0.789-1.986L53.495,18.484L53.495,18.484z M46.024,20.164c-1.944,1.047-4.377,0.316-5.424-1.627
				c-1.047-1.945-0.317-4.377,1.628-5.424c1.943-1.047,4.376-0.316,5.423,1.627S47.969,19.117,46.024,20.164L46.024,20.164z"/>
		</g>
	</g>
</g>
</svg>
