<?xml version="1.0" encoding="utf-8"?>
<!-- Generator: Adobe Illustrator 16.0.0, SVG Export Plug-In . SVG Version: 6.00 Build 0)  -->
<!DOCTYPE svg PUBLIC "-//W3C//DTD SVG 1.1//EN" "http://www.w3.org/Graphics/SVG/1.1/DTD/svg11.dtd">
<svg version="1.1" id="圖層_1" xmlns="http://www.w3.org/2000/svg" xmlns:xlink="http://www.w3.org/1999/xlink" x="0px" y="0px"
	 width="65.167px" height="62.667px" viewBox="-1.355 -0.773 65.167 62.667" enable-background="new -1.355 -0.773 65.167 62.667"
	 xml:space="preserve">
<g id="full-signal_x0020__x0028_1_x0029_.svg">
	<g>
		<g>
			<path fill="#040000" d="M22.795,32.563h-8.684c-0.6,0-1.086,0.486-1.086,1.086v26.052c0,0.6,0.486,1.086,1.086,1.086h8.684
				c0.6,0,1.086-0.486,1.086-1.086V33.649C23.881,33.051,23.395,32.563,22.795,32.563L22.795,32.563z"/>
		</g>
	</g>
	<g>
		<g>
			<path fill="#040000" d="M35.82,21.71h-8.684c-0.599,0-1.085,0.486-1.085,1.084v36.907c0,0.6,0.486,1.086,1.085,1.086h8.684
				c0.6,0,1.086-0.486,1.086-1.086V22.794C36.906,22.197,36.42,21.71,35.82,21.71L35.82,21.71z"/>
		</g>
	</g>
	<g>
		<g>
			<path fill="#040000" d="M48.848,10.855h-8.686c-0.6,0-1.085,0.486-1.085,1.086v47.76c0,0.6,0.485,1.086,1.085,1.086h8.686
				c0.598,0,1.084-0.486,1.084-1.086v-47.76C49.932,11.341,49.445,10.855,48.848,10.855L48.848,10.855z"/>
		</g>
	</g>
	<g>
		<g>
			<path fill="#040000" d="M61.872,0h-8.685c-0.6,0-1.086,0.487-1.086,1.086v58.615c0,0.6,0.486,1.086,1.086,1.086h8.685
				c0.599,0,1.085-0.486,1.085-1.086V1.085C62.957,0.486,62.471,0,61.872,0z"/>
		</g>
	</g>
	<g>
		<g>
			<path fill="#040000" d="M9.77,43.42H1.086C0.486,43.42,0,43.906,0,44.506v15.195c0,0.6,0.486,1.086,1.086,1.086H9.77
				c0.599,0,1.086-0.486,1.086-1.086V44.506C10.854,43.906,10.368,43.42,9.77,43.42L9.77,43.42z"/>
		</g>
	</g>
</g>
</svg>
