<?xml version="1.0" encoding="utf-8"?>
<!-- Generator: Adobe Illustrator 16.0.0, SVG Export Plug-In . SVG Version: 6.00 Build 0)  -->
<!DOCTYPE svg PUBLIC "-//W3C//DTD SVG 1.1//EN" "http://www.w3.org/Graphics/SVG/1.1/DTD/svg11.dtd">
<svg version="1.1" id="圖層_1" xmlns="http://www.w3.org/2000/svg" xmlns:xlink="http://www.w3.org/1999/xlink" x="0px" y="0px"
	 width="86.75px" height="64.75px" viewBox="0 0 86.75 64.75" enable-background="new 0 0 86.75 64.75" xml:space="preserve">
<g id="wifi-signal.svg">
	<g>
		<g>
			<path fill="#040000" d="M85.224,20.595c-0.032-0.048-0.069-0.092-0.11-0.133C73.922,9.27,59.041,3.106,43.212,3.106
				c-15.827,0-30.706,6.163-41.898,17.354c-0.174,0.173-0.274,0.409-0.274,0.657c0,0.246,0.098,0.481,0.271,0.655l6.127,6.127
				c0.173,0.173,0.409,0.271,0.654,0.271c0.245,0,0.48-0.097,0.654-0.271c9.221-9.222,21.461-14.3,34.466-14.3
				s25.245,5.079,34.466,14.3c0.173,0.174,0.409,0.271,0.653,0.271c0.246,0,0.48-0.098,0.654-0.271l6.127-6.127
				c0.174-0.173,0.271-0.409,0.271-0.654C85.385,20.931,85.328,20.749,85.224,20.595L85.224,20.595z"/>
			<path fill="#040000" d="M43.212,19.31c-11.482,0-22.289,4.483-30.429,12.625c-0.361,0.361-0.361,0.947,0,1.309l6.108,6.107
				c0.173,0.174,0.409,0.271,0.654,0.271c0.246,0,0.481-0.098,0.654-0.271c6.157-6.157,14.33-9.548,23.014-9.548
				s16.856,3.391,23.014,9.548c0.174,0.174,0.408,0.271,0.654,0.271c0.245,0,0.48-0.098,0.653-0.271l6.108-6.107
				c0.174-0.174,0.271-0.409,0.271-0.655c0-0.245-0.098-0.48-0.271-0.654C65.502,23.793,54.695,19.31,43.212,19.31z"/>
			<path fill="#040000" d="M43.212,35.514c-7.161,0-13.9,2.795-18.977,7.873c-0.174,0.173-0.271,0.408-0.271,0.654
				c0,0.245,0.097,0.48,0.271,0.654l6.107,6.107c0.174,0.174,0.409,0.271,0.654,0.271c0.246,0,0.48-0.098,0.654-0.271
				c3.093-3.094,7.199-4.797,11.561-4.797s8.469,1.703,11.562,4.797c0.174,0.174,0.409,0.271,0.653,0.271
				c0.246,0,0.481-0.098,0.654-0.271l6.108-6.107c0.36-0.361,0.36-0.947,0-1.309C57.113,38.309,50.373,35.514,43.212,35.514
				L43.212,35.514z"/>
			<path fill="#040000" d="M43.212,52.683c-2.501,0-4.853,0.974-6.621,2.743c-0.361,0.36-0.361,0.946,0,1.308l5.967,5.968
				c0.173,0.173,0.409,0.271,0.654,0.271c0.246,0,0.481-0.098,0.654-0.271l5.967-5.968c0.361-0.361,0.361-0.947,0-1.309
				C48.065,53.656,45.715,52.683,43.212,52.683L43.212,52.683z"/>
		</g>
	</g>
</g>
</svg>
