<?xml version="1.0" encoding="utf-8"?>
<!-- Generator: Adobe Illustrator 16.0.0, SVG Export Plug-In . SVG Version: 6.00 Build 0)  -->
<!DOCTYPE svg PUBLIC "-//W3C//DTD SVG 1.1//EN" "http://www.w3.org/Graphics/SVG/1.1/DTD/svg11.dtd">
<svg version="1.1" id="Layer_1" xmlns="http://www.w3.org/2000/svg" xmlns:xlink="http://www.w3.org/1999/xlink" x="0px" y="0px"
	 width="200px" height="200px" viewBox="0 0 200 200" enable-background="new 0 0 200 200" xml:space="preserve">
<title></title>
<path fill="#FF0000" d="M170,47.5H30c-5.523,0-10,4.477-10,10s4.477,10,10,10h5.5l9,88c1.506,15.408,14.52,27.12,30,27h51
	c15.5,0,28-11.5,30-27l9-88h5.5c5.523,0,10-4.477,10-10S175.523,47.5,170,47.5z M135.5,153.5c-0.614,5.078-4.885,8.922-10,9h-51
	c-5.115-0.078-9.386-3.922-10-9l-9-86h89L135.5,153.5z M85,147.5c5.523,0,10-4.477,10-10V90c0-5.523-4.477-10-10-10s-10,4.477-10,10
	v47.5C75,143.023,79.477,147.5,85,147.5z M115,147.5c5.523,0,10-4.477,10-10V90c0-5.523-4.477-10-10-10s-10,4.477-10,10v47.5
	C105,143.023,109.477,147.5,115,147.5z M85,37.5h27.5c5.523,0,10-4.477,10-10s-4.477-10-10-10H85c-5.523,0-10,4.477-10,10
	S79.477,37.5,85,37.5z"/>
</svg>
