<?xml version="1.0" encoding="utf-8"?>
<!-- Generator: Adobe Illustrator 16.0.0, SVG Export Plug-In . SVG Version: 6.00 Build 0)  -->
<!DOCTYPE svg PUBLIC "-//W3C//DTD SVG 1.1//EN" "http://www.w3.org/Graphics/SVG/1.1/DTD/svg11.dtd">
<svg version="1.1" id="圖層_1" focusable="false" xmlns="http://www.w3.org/2000/svg" xmlns:xlink="http://www.w3.org/1999/xlink"
	 x="0px" y="0px" width="595.279px" height="841.89px" viewBox="0 0 595.279 841.89" enable-background="new 0 0 595.279 841.89"
	 xml:space="preserve">
<path fill="#FFFFFF" d="M505.988,331.653v59.528h29.765v59.527h-29.765v59.529H59.528V331.653H505.988 M520.87,272.125H44.646
	C19.989,272.125,0,292.113,0,316.771v208.348c0,24.658,19.988,44.646,44.646,44.646H520.87c24.657,0,44.646-19.988,44.646-44.646
	v-14.881h7.441c12.328,0,22.322-9.994,22.322-22.324V353.976c0-12.329-9.994-22.323-22.322-22.323h-7.441v-14.882
	C565.516,292.113,545.528,272.125,520.87,272.125z M386.932,361.417H89.292v119.055h297.64V361.417z"/>
</svg>
