<?xml version="1.0" encoding="utf-8"?>
<!-- Generator: Adobe Illustrator 16.0.0, SVG Export Plug-In . SVG Version: 6.00 Build 0)  -->
<!DOCTYPE svg PUBLIC "-//W3C//DTD SVG 1.1//EN" "http://www.w3.org/Graphics/SVG/1.1/DTD/svg11.dtd">
<svg version="1.1" id="圖層_1" xmlns="http://www.w3.org/2000/svg" xmlns:xlink="http://www.w3.org/1999/xlink" x="0px" y="0px"
	 width="73.333px" height="79.667px" viewBox="0 0 73.333 79.667" enable-background="new 0 0 73.333 79.667" xml:space="preserve">
<g id="bluetooth_x0020__x0028_2_x0029_.svg">
	<path fill="#FFFFFF" d="M45.233,40.017l8.854,8.854c1.068-2.768,1.68-5.764,1.68-8.893c0-3.11-0.592-6.087-1.641-8.835
		L45.233,40.017L45.233,40.017L45.233,40.017z M65.422,19.809l-4.827,4.828c2.386,4.599,3.76,9.808,3.76,15.361
		c0,5.552-1.374,10.744-3.76,15.362l4.579,4.58c3.684-5.916,5.859-12.844,5.859-20.285C71.032,32.365,68.954,25.591,65.422,19.809
		L65.422,19.809L65.422,19.809z M50.825,23.587L29.052,1.814h-3.816v28.948l-17.5-17.499l-5.4,5.401l21.315,21.315L2.336,61.292
		l5.4,5.4l17.499-17.498v28.948h3.816l21.772-21.772L34.451,39.979L50.825,23.587L50.825,23.587z M32.868,16.431l7.175,7.175
		l-7.175,7.156V16.431z M40.043,56.371l-7.175,7.156V49.175L40.043,56.371z"/>
</g>
</svg>
